<svg height="3214" width="720" xmlns="http://www.w3.org/2000/svg">
<rect height="3214" fill="#555" width="720"></rect>
<text fill="#7f7" font-family="Courier New" font-size="12" xml:space="preserve">
<tspan x="10" y="26">31 megabytes installed</tspan>
<tspan x="10" y="42"></tspan>
<tspan x="10" y="58">node_modules</tspan>
<tspan x="10" y="74">└─┬ pouchdb@6.1.2 </tspan>
<tspan x="10" y="90">  ├── argsarray@0.0.1 </tspan>
<tspan x="10" y="106">  ├─┬ buffer-from@0.1.1 </tspan>
<tspan x="10" y="122">  │ └─┬ is-array-buffer-x@1.2.1 </tspan>
<tspan x="10" y="138">  │   ├─┬ has-to-string-tag-x@1.2.0 </tspan>
<tspan x="10" y="154">  │   │ └── has-symbol-support-x@1.2.0 </tspan>
<tspan x="10" y="170">  │   ├─┬ is-object-like-x@1.2.0 </tspan>
<tspan x="10" y="186">  │   │ ├── is-function-x@1.2.0 </tspan>
<tspan x="10" y="202">  │   │ └── is-primitive@2.0.0 </tspan>
<tspan x="10" y="218">  │   └─┬ to-string-tag-x@1.2.0 </tspan>
<tspan x="10" y="234">  │     ├── lodash.isnull@3.0.0 </tspan>
<tspan x="10" y="250">  │     └── validate.io-undefined@1.0.3 </tspan>
<tspan x="10" y="266">  ├── clone-buffer@1.0.0 </tspan>
<tspan x="10" y="282">  ├─┬ debug@2.6.0 </tspan>
<tspan x="10" y="298">  │ └── ms@0.7.2 </tspan>
<tspan x="10" y="314">  ├── double-ended-queue@2.1.0-0 </tspan>
<tspan x="10" y="330">  ├── immediate@3.0.6 </tspan>
<tspan x="10" y="346">  ├── inherits@2.0.3 </tspan>
<tspan x="10" y="362">  ├── level-codec@7.0.0 </tspan>
<tspan x="10" y="378">  ├─┬ level-write-stream@1.0.0 </tspan>
<tspan x="10" y="394">  │ └─┬ end-stream@0.1.0 </tspan>
<tspan x="10" y="410">  │   └─┬ write-stream@0.4.3 </tspan>
<tspan x="10" y="426">  │     └── readable-stream@0.0.4 </tspan>
<tspan x="10" y="442">  ├─┬ leveldown@1.5.0 </tspan>
<tspan x="10" y="458">  │ ├── abstract-leveldown@2.6.1 </tspan>
<tspan x="10" y="474">  │ ├── bindings@1.2.1 </tspan>
<tspan x="10" y="490">  │ ├── fast-future@1.0.2 </tspan>
<tspan x="10" y="506">  │ ├── nan@2.4.0 </tspan>
<tspan x="10" y="522">  │ └─┬ prebuild@4.5.0 </tspan>
<tspan x="10" y="538">  │   ├── async@1.5.2 </tspan>
<tspan x="10" y="554">  │   ├─┬ execspawn@1.0.1 </tspan>
<tspan x="10" y="570">  │   │ └── util-extend@1.0.3 </tspan>
<tspan x="10" y="586">  │   ├── expand-template@1.0.3 </tspan>
<tspan x="10" y="602">  │   ├─┬ ghreleases@1.0.5 </tspan>
<tspan x="10" y="618">  │   │ ├── after@0.8.2 </tspan>
<tspan x="10" y="634">  │   │ ├── ghrepos@2.0.0 </tspan>
<tspan x="10" y="650">  │   │ ├─┬ ghutils@3.2.1 </tspan>
<tspan x="10" y="666">  │   │ │ └─┬ jsonist@1.3.0 </tspan>
<tspan x="10" y="682">  │   │ │   └─┬ hyperquest@1.2.0 </tspan>
<tspan x="10" y="698">  │   │ │     ├─┬ duplexer2@0.0.2 </tspan>
<tspan x="10" y="714">  │   │ │     │ └─┬ readable-stream@1.1.14 </tspan>
<tspan x="10" y="730">  │   │ │     │   └── isarray@0.0.1 </tspan>
<tspan x="10" y="746">  │   │ │     └── through2@0.6.5 </tspan>
<tspan x="10" y="762">  │   │ ├── simple-mime@0.1.0 </tspan>
<tspan x="10" y="778">  │   │ └── url-template@2.0.8 </tspan>
<tspan x="10" y="794">  │   ├── github-from-package@0.0.0 </tspan>
<tspan x="10" y="810">  │   ├── minimist@1.2.0 </tspan>
<tspan x="10" y="826">  │   ├─┬ mkdirp@0.5.1 </tspan>
<tspan x="10" y="842">  │   │ └── minimist@0.0.8 </tspan>
<tspan x="10" y="858">  │   ├─┬ node-gyp@3.6.0 </tspan>
<tspan x="10" y="874">  │   │ ├── fstream@1.0.11 </tspan>
<tspan x="10" y="890">  │   │ ├─┬ glob@7.1.1 </tspan>
<tspan x="10" y="906">  │   │ │ ├── fs.realpath@1.0.0 </tspan>
<tspan x="10" y="922">  │   │ │ ├── inflight@1.0.6 </tspan>
<tspan x="10" y="938">  │   │ │ └── path-is-absolute@1.0.1 </tspan>
<tspan x="10" y="954">  │   │ ├── graceful-fs@4.1.11 </tspan>
<tspan x="10" y="970">  │   │ ├─┬ minimatch@3.0.3 </tspan>
<tspan x="10" y="986">  │   │ │ └─┬ brace-expansion@1.1.7 </tspan>
<tspan x="10" y="1002">  │   │ │   ├── balanced-match@0.4.2 </tspan>
<tspan x="10" y="1018">  │   │ │   └── concat-map@0.0.1 </tspan>
<tspan x="10" y="1034">  │   │ ├─┬ nopt@3.0.6 </tspan>
<tspan x="10" y="1050">  │   │ │ └── abbrev@1.1.0 </tspan>
<tspan x="10" y="1066">  │   │ ├─┬ osenv@0.1.4 </tspan>
<tspan x="10" y="1082">  │   │ │ └── os-tmpdir@1.0.2 </tspan>
<tspan x="10" y="1098">  │   │ ├── rimraf@2.6.1 </tspan>
<tspan x="10" y="1114">  │   │ ├── semver@5.3.0 </tspan>
<tspan x="10" y="1130">  │   │ ├─┬ tar@2.2.1 </tspan>
<tspan x="10" y="1146">  │   │ │ └── block-stream@0.0.9 </tspan>
<tspan x="10" y="1162">  │   │ └─┬ which@1.2.14 </tspan>
<tspan x="10" y="1178">  │   │   └── isexe@2.0.0 </tspan>
<tspan x="10" y="1194">  │   ├─┬ node-ninja@1.0.2 </tspan>
<tspan x="10" y="1210">  │   │ └─┬ path-array@1.0.1 </tspan>
<tspan x="10" y="1226">  │   │   └─┬ array-index@1.0.0 </tspan>
<tspan x="10" y="1242">  │   │     └─┬ es6-symbol@3.1.1 </tspan>
<tspan x="10" y="1258">  │   │       ├── d@1.0.0 </tspan>
<tspan x="10" y="1274">  │   │       └─┬ es5-ext@0.10.15 </tspan>
<tspan x="10" y="1290">  │   │         └── es6-iterator@2.0.1 </tspan>
<tspan x="10" y="1306">  │   ├── noop-logger@0.1.1 </tspan>
<tspan x="10" y="1322">  │   ├─┬ npmlog@2.0.4 </tspan>
<tspan x="10" y="1338">  │   │ ├── ansi@0.3.1 </tspan>
<tspan x="10" y="1354">  │   │ ├─┬ are-we-there-yet@1.1.2 </tspan>
<tspan x="10" y="1370">  │   │ │ ├── delegates@1.0.0 </tspan>
<tspan x="10" y="1386">  │   │ │ └─┬ readable-stream@2.2.9 </tspan>
<tspan x="10" y="1402">  │   │ │   └── string_decoder@1.0.0 </tspan>
<tspan x="10" y="1418">  │   │ └─┬ gauge@1.2.7 </tspan>
<tspan x="10" y="1434">  │   │   ├── has-unicode@2.0.1 </tspan>
<tspan x="10" y="1450">  │   │   ├── lodash.pad@4.5.1 </tspan>
<tspan x="10" y="1466">  │   │   ├── lodash.padend@4.6.1 </tspan>
<tspan x="10" y="1482">  │   │   └── lodash.padstart@4.6.1 </tspan>
<tspan x="10" y="1498">  │   ├── os-homedir@1.0.2 </tspan>
<tspan x="10" y="1514">  │   ├─┬ pump@1.0.2 </tspan>
<tspan x="10" y="1530">  │   │ ├── end-of-stream@1.4.0 </tspan>
<tspan x="10" y="1546">  │   │ └─┬ once@1.4.0 </tspan>
<tspan x="10" y="1562">  │   │   └── wrappy@1.0.2 </tspan>
<tspan x="10" y="1578">  │   ├─┬ rc@1.2.1 </tspan>
<tspan x="10" y="1594">  │   │ ├── deep-extend@0.4.1 </tspan>
<tspan x="10" y="1610">  │   │ ├── ini@1.3.4 </tspan>
<tspan x="10" y="1626">  │   │ └── strip-json-comments@2.0.1 </tspan>
<tspan x="10" y="1642">  │   ├─┬ simple-get@1.4.3 </tspan>
<tspan x="10" y="1658">  │   │ └── unzip-response@1.0.2 </tspan>
<tspan x="10" y="1674">  │   ├─┬ tar-fs@1.15.2 </tspan>
<tspan x="10" y="1690">  │   │ └── chownr@1.0.1 </tspan>
<tspan x="10" y="1706">  │   └─┬ tar-stream@1.5.2 </tspan>
<tspan x="10" y="1722">  │     ├─┬ bl@1.0.3 </tspan>
<tspan x="10" y="1738">  │     │ └── readable-stream@2.0.6 </tspan>
<tspan x="10" y="1754">  │     └─┬ readable-stream@2.2.9 </tspan>
<tspan x="10" y="1770">  │       ├── buffer-shims@1.0.0 </tspan>
<tspan x="10" y="1786">  │       └── string_decoder@1.0.0 </tspan>
<tspan x="10" y="1802">  ├─┬ levelup@1.3.3 </tspan>
<tspan x="10" y="1818">  │ ├─┬ deferred-leveldown@1.2.1 </tspan>
<tspan x="10" y="1834">  │ │ └── abstract-leveldown@2.4.1 </tspan>
<tspan x="10" y="1850">  │ ├── level-codec@6.1.0 </tspan>
<tspan x="10" y="1866">  │ ├─┬ level-errors@1.0.4 </tspan>
<tspan x="10" y="1882">  │ │ └─┬ errno@0.1.4 </tspan>
<tspan x="10" y="1898">  │ │   └── prr@0.0.0 </tspan>
<tspan x="10" y="1914">  │ ├── level-iterator-stream@1.3.1 </tspan>
<tspan x="10" y="1930">  │ ├── prr@1.0.1 </tspan>
<tspan x="10" y="1946">  │ ├── semver@5.1.1 </tspan>
<tspan x="10" y="1962">  │ └── xtend@4.0.1 </tspan>
<tspan x="10" y="1978">  ├── lie@3.1.0 </tspan>
<tspan x="10" y="1994">  ├── ltgt@2.1.2 </tspan>
<tspan x="10" y="2010">  ├─┬ readable-stream@1.0.33 </tspan>
<tspan x="10" y="2026">  │ ├── core-util-is@1.0.2 </tspan>
<tspan x="10" y="2042">  │ ├── isarray@0.0.1 </tspan>
<tspan x="10" y="2058">  │ └── string_decoder@0.10.31 </tspan>
<tspan x="10" y="2074">  ├─┬ request@2.79.0 </tspan>
<tspan x="10" y="2090">  │ ├── aws-sign2@0.6.0 </tspan>
<tspan x="10" y="2106">  │ ├── aws4@1.6.0 </tspan>
<tspan x="10" y="2122">  │ ├── caseless@0.11.0 </tspan>
<tspan x="10" y="2138">  │ ├─┬ combined-stream@1.0.5 </tspan>
<tspan x="10" y="2154">  │ │ └── delayed-stream@1.0.0 </tspan>
<tspan x="10" y="2170">  │ ├── extend@3.0.0 </tspan>
<tspan x="10" y="2186">  │ ├── forever-agent@0.6.1 </tspan>
<tspan x="10" y="2202">  │ ├─┬ form-data@2.1.4 </tspan>
<tspan x="10" y="2218">  │ │ └── asynckit@0.4.0 </tspan>
<tspan x="10" y="2234">  │ ├─┬ har-validator@2.0.6 </tspan>
<tspan x="10" y="2250">  │ │ ├─┬ chalk@1.1.3 </tspan>
<tspan x="10" y="2266">  │ │ │ ├── ansi-styles@2.2.1 </tspan>
<tspan x="10" y="2282">  │ │ │ ├── escape-string-regexp@1.0.5 </tspan>
<tspan x="10" y="2298">  │ │ │ ├─┬ has-ansi@2.0.0 </tspan>
<tspan x="10" y="2314">  │ │ │ │ └── ansi-regex@2.1.1 </tspan>
<tspan x="10" y="2330">  │ │ │ ├── strip-ansi@3.0.1 </tspan>
<tspan x="10" y="2346">  │ │ │ └── supports-color@2.0.0 </tspan>
<tspan x="10" y="2362">  │ │ ├─┬ commander@2.9.0 </tspan>
<tspan x="10" y="2378">  │ │ │ └── graceful-readlink@1.0.1 </tspan>
<tspan x="10" y="2394">  │ │ ├─┬ is-my-json-valid@2.16.0 </tspan>
<tspan x="10" y="2410">  │ │ │ ├── generate-function@2.0.0 </tspan>
<tspan x="10" y="2426">  │ │ │ ├─┬ generate-object-property@1.2.0 </tspan>
<tspan x="10" y="2442">  │ │ │ │ └── is-property@1.0.2 </tspan>
<tspan x="10" y="2458">  │ │ │ └── jsonpointer@4.0.1 </tspan>
<tspan x="10" y="2474">  │ │ └─┬ pinkie-promise@2.0.1 </tspan>
<tspan x="10" y="2490">  │ │   └── pinkie@2.0.4 </tspan>
<tspan x="10" y="2506">  │ ├─┬ hawk@3.1.3 </tspan>
<tspan x="10" y="2522">  │ │ ├── boom@2.10.1 </tspan>
<tspan x="10" y="2538">  │ │ ├── cryptiles@2.0.5 </tspan>
<tspan x="10" y="2554">  │ │ ├── hoek@2.16.3 </tspan>
<tspan x="10" y="2570">  │ │ └── sntp@1.0.9 </tspan>
<tspan x="10" y="2586">  │ ├─┬ http-signature@1.1.1 </tspan>
<tspan x="10" y="2602">  │ │ ├── assert-plus@0.2.0 </tspan>
<tspan x="10" y="2618">  │ │ ├─┬ jsprim@1.4.0 </tspan>
<tspan x="10" y="2634">  │ │ │ ├── assert-plus@1.0.0 </tspan>
<tspan x="10" y="2650">  │ │ │ ├── extsprintf@1.0.2 </tspan>
<tspan x="10" y="2666">  │ │ │ ├── json-schema@0.2.3 </tspan>
<tspan x="10" y="2682">  │ │ │ └── verror@1.3.6 </tspan>
<tspan x="10" y="2698">  │ │ └─┬ sshpk@1.11.0 </tspan>
<tspan x="10" y="2714">  │ │   ├── asn1@0.2.3 </tspan>
<tspan x="10" y="2730">  │ │   ├── assert-plus@1.0.0 </tspan>
<tspan x="10" y="2746">  │ │   ├── bcrypt-pbkdf@1.0.1 </tspan>
<tspan x="10" y="2762">  │ │   ├─┬ dashdash@1.14.1 </tspan>
<tspan x="10" y="2778">  │ │   │ └── assert-plus@1.0.0 </tspan>
<tspan x="10" y="2794">  │ │   ├── ecc-jsbn@0.1.1 </tspan>
<tspan x="10" y="2810">  │ │   ├─┬ getpass@0.1.6 </tspan>
<tspan x="10" y="2826">  │ │   │ └── assert-plus@1.0.0 </tspan>
<tspan x="10" y="2842">  │ │   ├── jodid25519@1.0.2 </tspan>
<tspan x="10" y="2858">  │ │   ├── jsbn@0.1.1 </tspan>
<tspan x="10" y="2874">  │ │   └── tweetnacl@0.14.5 </tspan>
<tspan x="10" y="2890">  │ ├── is-typedarray@1.0.0 </tspan>
<tspan x="10" y="2906">  │ ├── isstream@0.1.2 </tspan>
<tspan x="10" y="2922">  │ ├── json-stringify-safe@5.0.1 </tspan>
<tspan x="10" y="2938">  │ ├─┬ mime-types@2.1.15 </tspan>
<tspan x="10" y="2954">  │ │ └── mime-db@1.27.0 </tspan>
<tspan x="10" y="2970">  │ ├── oauth-sign@0.8.2 </tspan>
<tspan x="10" y="2986">  │ ├── qs@6.3.2 </tspan>
<tspan x="10" y="3002">  │ ├── stringstream@0.0.5 </tspan>
<tspan x="10" y="3018">  │ ├─┬ tough-cookie@2.3.2 </tspan>
<tspan x="10" y="3034">  │ │ └── punycode@1.4.1 </tspan>
<tspan x="10" y="3050">  │ ├── tunnel-agent@0.4.3 </tspan>
<tspan x="10" y="3066">  │ └── uuid@3.0.1 </tspan>
<tspan x="10" y="3082">  ├── scope-eval@0.0.3 </tspan>
<tspan x="10" y="3098">  ├── spark-md5@3.0.0 </tspan>
<tspan x="10" y="3114">  ├─┬ through2@2.0.1 </tspan>
<tspan x="10" y="3130">  │ └─┬ readable-stream@2.0.6 </tspan>
<tspan x="10" y="3146">  │   ├── isarray@1.0.0 </tspan>
<tspan x="10" y="3162">  │   ├── process-nextick-args@1.0.7 </tspan>
<tspan x="10" y="3178">  │   └── util-deprecate@1.0.2 </tspan>
<tspan x="10" y="3194">  └── vuvuzela@1.0.3</tspan>
</text>
</svg>
